<svg width="36" height="39" viewBox="0 0 36 39" fill="none" xmlns="http://www.w3.org/2000/svg">
<path d="M30 6.35297H6C4.35 6.35297 3.015 7.78238 3.015 9.52944L3 28.5883C3 30.3353 4.35 31.7647 6 31.7647H30C31.65 31.7647 33 30.3353 33 28.5883V9.52944C33 7.78238 31.65 6.35297 30 6.35297ZM29.4 13.103L18.795 20.123C18.315 20.4406 17.685 20.4406 17.205 20.123L6.6 13.103C6.44959 13.0136 6.31788 12.8928 6.21283 12.7479C6.10779 12.6031 6.03159 12.4371 5.98886 12.2602C5.94613 12.0833 5.93775 11.899 5.96423 11.7185C5.99072 11.538 6.0515 11.3651 6.14292 11.2103C6.23434 11.0554 6.35449 10.9218 6.49609 10.8175C6.63769 10.7132 6.79781 10.6404 6.96674 10.6036C7.13568 10.5667 7.30992 10.5665 7.47893 10.603C7.64794 10.6395 7.8082 10.7119 7.95 10.8159L18 17.4706L28.05 10.8159C28.1918 10.7119 28.3521 10.6395 28.5211 10.603C28.6901 10.5665 28.8643 10.5667 29.0333 10.6036C29.2022 10.6404 29.3623 10.7132 29.5039 10.8175C29.6455 10.9218 29.7657 11.0554 29.8571 11.2103C29.9485 11.3651 30.0093 11.538 30.0358 11.7185C30.0622 11.899 30.0539 12.0833 30.0111 12.2602C29.9684 12.4371 29.8922 12.6031 29.7872 12.7479C29.6821 12.8928 29.5504 13.0136 29.4 13.103Z" fill="#200F0F"/>
</svg>
