<svg width="50" height="50" viewBox="0 0 50 50" fill="none" xmlns="http://www.w3.org/2000/svg">
<path d="M45.8333 12.3062C44.2716 12.9883 42.6176 13.4355 40.925 13.6333C42.7016 12.59 44.0376 10.9356 44.6833 8.97914C43 9.95899 41.164 10.6491 39.252 11.0208C38.4469 10.1775 37.4785 9.50703 36.4057 9.05035C35.3329 8.59366 34.1784 8.36032 33.0125 8.36456C28.2916 8.36456 24.4645 12.1354 24.4645 16.7812C24.4645 17.4396 24.5395 18.0833 24.6854 18.6979C21.2991 18.5368 17.9835 17.6717 14.9503 16.1576C11.9171 14.6435 9.23279 12.5137 7.06871 9.90414C6.31001 11.1841 5.91124 12.6454 5.91454 14.1333C5.91599 15.5249 6.26418 16.8942 6.92765 18.1175C7.59111 19.3407 8.54893 20.3794 9.71454 21.1396C8.3593 21.0958 7.03334 20.734 5.84371 20.0833V20.1875C5.84371 24.2666 8.79163 27.6687 12.6979 28.4437C11.9637 28.6385 11.2074 28.7373 10.4479 28.7375C9.89579 28.7375 9.36038 28.6854 8.83746 28.5812C9.39597 30.2644 10.4648 31.7319 11.8954 32.7798C13.3261 33.8278 15.0476 34.4043 16.8208 34.4291C13.7793 36.7719 10.0454 38.0376 6.20621 38.0271C5.51454 38.0271 4.83538 37.9854 4.16663 37.9104C8.0859 40.391 12.6304 41.7047 17.2687 41.6979C32.9916 41.6979 41.5875 28.8708 41.5875 17.7479L41.5583 16.6583C43.2351 15.4785 44.6836 14.0038 45.8333 12.3062Z" fill="#F2EBC4"/>
</svg>
