<svg width="151" height="33" viewBox="0 0 151 33" fill="none" xmlns="http://www.w3.org/2000/svg">
<path d="M26.5781 0.863281L15.5566 26H10.5469L0 0.863281H5.53711L13.3242 20.1113L21.0938 0.863281H26.5781ZM33.4336 0.863281V4.55469H28.7754V0.863281H33.4336ZM33.4336 7.54297V26H28.7754V7.54297H33.4336ZM42.9434 0.863281V32.6797H38.2852V0.863281H42.9434ZM48.2344 26V0.863281H52.8926V11.2344H65.2852V0.863281H69.9434V26H65.2852V15.2773H52.8926V26H48.2344ZM78.5742 16.7012C78.5742 20.5566 80.0684 22.4844 83.0566 22.4844C86.0449 22.4844 87.5391 20.5566 87.5391 16.7012C87.5391 12.9395 86.0449 11.0586 83.0566 11.0586C80.0684 11.0586 78.5742 12.9395 78.5742 16.7012ZM73.916 16.7715C73.916 10.584 76.9629 7.49023 83.0566 7.49023C89.1504 7.49023 92.1973 10.584 92.1973 16.7715C92.1973 22.9473 89.1504 26.0352 83.0566 26.0352C76.9863 26.0352 73.9395 22.9473 73.916 16.7715ZM112.324 7.54297V26H108.686L108.123 23.6445C106.002 25.2148 103.752 26 101.373 26C97.5996 26 95.7129 23.7676 95.7129 19.3027V7.54297H100.371V19.1797C100.371 21.2188 101.262 22.2383 103.043 22.2383C104.555 22.2383 106.096 21.6348 107.666 20.4277V7.54297H112.324ZM116.736 25.1211V21.2539C118.787 22.0742 121.154 22.4844 123.838 22.4844C125.842 22.4844 126.844 21.8398 126.844 20.5508C126.844 19.3203 126.17 18.7051 124.822 18.7051H121.482C117.732 18.7051 115.857 16.8594 115.857 13.168C115.857 9.30078 118.594 7.36719 124.066 7.36719C126.387 7.36719 128.572 7.71875 130.623 8.42188V12.2891C128.572 11.4688 126.346 11.0586 123.943 11.0586C121.424 11.0586 120.164 11.7031 120.164 12.9922C120.164 14.2227 120.896 14.8379 122.361 14.8379H125.35C129.451 14.8379 131.502 16.6836 131.502 20.375C131.502 24.2422 128.889 26.1758 123.662 26.1758C121.096 26.1758 118.787 25.8242 116.736 25.1211ZM142.559 7.54297C148.16 7.54297 150.961 10.4023 150.961 16.1211C150.961 16.8828 150.908 17.6445 150.803 18.4062H138.551C138.551 21.0078 140.461 22.3086 144.281 22.3086C146.145 22.3086 148.008 22.1328 149.871 21.7812V25.4727C148.242 25.8242 146.262 26 143.93 26C137.238 26 133.893 22.8535 133.893 16.5605C133.893 10.5488 136.781 7.54297 142.559 7.54297ZM138.551 15.1719H146.426V15.0312C146.426 12.4766 145.137 11.1992 142.559 11.1992C140.098 11.1992 138.762 12.5234 138.551 15.1719Z" fill="#F2EBC4"/>
</svg>
